<svg height="512" viewBox="0 0 512 512" width="512" xmlns="http://www.w3.org/2000/svg"><g><g fill="#57a4ff"><path d="m224 80h-112v-40h88z"/><path d="m404 80h-180l-24-40h-92a12 12 0 0 0 -12 12v200a12 12 0 0 0 12 12h296a12 12 0 0 0 12-12v-160a12 12 0 0 0 -12-12zm-12 160h-48v-24h48z"/></g><g fill="#004fac"><path d="m296 392h-80a8 8 0 0 0 0 16h80a8 8 0 0 0 0-16z"/><path d="m296 416h-80a8 8 0 0 0 0 16h80a8 8 0 0 0 0-16z"/><path d="m208 376a8 8 0 0 0 8 8h80a8 8 0 0 0 0-16h-80a8 8 0 0 0 -8 8z"/><path d="m296 440h-80a8 8 0 0 0 0 16h80a8 8 0 0 0 0-16z"/><path d="m248 464h-32a8 8 0 0 0 0 16h32a8 8 0 0 0 0-16z"/><path d="m280 464h-8a8 8 0 0 0 0 16h8a8 8 0 0 0 0-16z"/><path d="m120 392h-80a8 8 0 0 0 0 16h80a8 8 0 0 0 0-16z"/><path d="m120 416h-80a8 8 0 0 0 0 16h80a8 8 0 0 0 0-16z"/><path d="m32 376a8 8 0 0 0 8 8h80a8 8 0 0 0 0-16h-80a8 8 0 0 0 -8 8z"/><path d="m120 440h-80a8 8 0 0 0 0 16h80a8 8 0 0 0 0-16z"/><path d="m72 464h-32a8 8 0 0 0 0 16h32a8 8 0 0 0 0-16z"/><path d="m104 464h-8a8 8 0 0 0 0 16h8a8 8 0 0 0 0-16z"/><path d="m496 344h-48v-32a8 8 0 0 0 -8-8h-176v-32h140a20.02 20.02 0 0 0 20-20v-160a20.035 20.035 0 0 0 -16-19.6v-56.4a8 8 0 0 0 -8-8h-288a8 8 0 0 0 -8 8v16.4a20.035 20.035 0 0 0 -16 19.6v200a20.02 20.02 0 0 0 20 20h140v32h-176a8 8 0 0 0 -8 8v32h-48a8 8 0 0 0 -8 8v144a8 8 0 0 0 8 8h128a8 8 0 0 0 8-8v-144a8 8 0 0 0 -8-8h-64v-24h168v24h-56a8 8 0 0 0 -8 8v144a8 8 0 0 0 8 8h128a8 8 0 0 0 8-8v-144a8 8 0 0 0 -8-8h-56v-24h168v24h-64a8 8 0 0 0 -8 8v144a8 8 0 0 0 8 8h128a8 8 0 0 0 8-8v-144a8 8 0 0 0 -8-8zm-360 16v128h-112v-128zm-16-336h272v48h-163.47l-21.67-36.12a8 8 0 0 0 -6.86-3.88h-80zm192 336v128h-112v-128zm-204-104a4 4 0 0 1 -4-4v-200a4 4 0 0 1 4-4h87.47l21.67 36.12a8 8 0 0 0 6.86 3.88h180a4 4 0 0 1 4 4v160a4 4 0 0 1 -4 4zm380 232h-112v-128h112z"/><path d="m472 392h-80a8 8 0 0 0 0 16h80a8 8 0 0 0 0-16z"/><path d="m472 416h-80a8 8 0 0 0 0 16h80a8 8 0 0 0 0-16z"/><path d="m384 376a8 8 0 0 0 8 8h80a8 8 0 0 0 0-16h-80a8 8 0 0 0 -8 8z"/><path d="m472 440h-80a8 8 0 0 0 0 16h80a8 8 0 0 0 0-16z"/><path d="m424 464h-32a8 8 0 0 0 0 16h32a8 8 0 0 0 0-16z"/><path d="m456 464h-8a8 8 0 0 0 0 16h8a8 8 0 0 0 0-16z"/><path d="m392 208h-48a8 8 0 0 0 -8 8v24a8 8 0 0 0 8 8h48a8 8 0 0 0 8-8v-24a8 8 0 0 0 -8-8zm-8 24h-32v-8h32z"/><path d="m320 208h-72a8 8 0 0 0 0 16h72a8 8 0 0 0 0-16z"/><path d="m320 232h-40a8 8 0 0 0 0 16h40a8 8 0 0 0 0-16z"/></g></g></svg>